<?xml version="1.0" standalone="no"?>
<!DOCTYPE svg PUBLIC "-//W3C//DTD SVG 20010904//EN"
 "http://www.w3.org/TR/2001/REC-SVG-20010904/DTD/svg10.dtd">
<svg version="1.0" xmlns="http://www.w3.org/2000/svg"
 width="1800.000000pt" height="400.000000pt" viewBox="0 0 1800.000000 400.000000"
 preserveAspectRatio="xMidYMid meet">

<g transform="translate(0.000000,400.000000) scale(0.100000,-0.100000)"
fill="#000000" stroke="none">
<path d="M2120 3130 c-263 -28 -405 -68 -623 -177 -135 -67 -223 -127 -310
-212 -204 -198 -297 -415 -297 -695 0 -159 25 -275 89 -410 94 -201 299 -391
545 -505 48 -23 91 -41 95 -41 5 0 28 -9 52 -19 51 -23 308 -86 389 -97 85
-10 616 -7 705 4 132 18 318 66 413 109 29 12 61 23 71 23 11 0 21 4 23 9 2 4
30 21 63 37 103 50 205 125 304 224 131 130 213 273 257 450 27 108 25 344 -3
455 -27 103 -76 217 -121 280 -211 295 -513 470 -952 550 -97 18 -575 28 -700
15z m498 -279 c23 -7 47 -9 53 -6 5 4 21 0 34 -9 13 -9 35 -16 47 -16 13 0 48
-9 78 -21 30 -11 64 -23 75 -27 39 -11 151 -76 218 -125 75 -55 172 -164 216
-242 101 -179 115 -448 34 -642 -43 -105 -154 -236 -269 -318 -33 -25 -101
-63 -150 -86 -49 -22 -97 -45 -106 -50 -18 -9 -72 -24 -143 -39 -22 -5 -58
-13 -80 -18 -106 -27 -356 -22 -475 8 -19 5 -66 17 -105 26 -93 23 -275 109
-352 168 -71 54 -159 147 -209 220 -48 71 -94 220 -101 327 -9 136 17 273 74
383 73 141 273 320 423 376 19 7 39 17 45 22 5 4 20 8 35 8 14 0 34 7 44 15
11 8 34 15 52 15 18 0 36 5 39 10 3 6 23 10 43 11 20 0 57 6 82 12 58 16 341
14 398 -2z"/>
<path d="M4376 3112 c-7 -13 -8 -2110 -1 -2123 9 -13 451 -12 476 2 13 6 18
16 15 26 -7 17 -10 783 -3 789 6 6 517 10 525 4 8 -5 62 -80 186 -255 31 -44
102 -144 159 -223 56 -79 109 -154 117 -166 37 -55 96 -133 119 -158 l25 -28
242 0 c134 0 245 4 248 9 3 5 -8 26 -25 47 -31 39 -70 93 -262 363 -124 175
-142 201 -234 330 -64 90 -70 102 -57 116 9 8 32 15 52 15 20 0 46 7 56 15 11
8 27 15 36 15 24 0 113 45 190 96 111 73 182 159 231 279 22 54 24 74 24 210
0 177 -13 229 -85 339 -75 114 -227 215 -390 257 -154 40 -167 41 -911 46
-463 3 -729 1 -733 -5z m1247 -256 c21 -8 47 -12 57 -9 11 3 31 -2 45 -11 13
-9 32 -16 42 -16 30 0 116 -55 159 -102 85 -92 114 -252 69 -378 -23 -65 -106
-155 -175 -190 -133 -68 -224 -81 -612 -87 -311 -4 -317 -4 -338 17 -20 20
-20 28 -20 400 l1 380 342 3 c188 1 353 3 367 4 14 1 42 -4 63 -11z"/>
<path d="M6784 3107 c-2 -7 -3 -65 -2 -128 l3 -114 430 -2 430 -2 5 -938 5
-938 225 -3 c124 -1 234 0 245 2 20 5 20 13 20 941 l0 937 432 -2 432 -1 6 33
c3 18 5 76 3 128 l-3 95 -1113 3 c-912 2 -1114 0 -1118 -11z"/>
<path d="M9366 3111 c-8 -12 -8 -2109 -1 -2122 6 -9 452 -13 477 -4 11 4 13
190 11 1063 -2 581 -3 1060 -3 1065 0 10 -478 9 -484 -2z"/>
<path d="M10345 3108 c-3 -7 -4 -488 -3 -1068 l3 -1055 224 -3 c124 -1 228 1
233 6 4 4 8 289 9 632 1 392 5 630 12 638 21 27 45 11 92 -65 108 -175 141
-229 148 -243 9 -20 76 -131 262 -435 50 -82 138 -229 195 -325 56 -96 110
-183 118 -192 13 -16 34 -18 154 -18 l139 0 38 62 c22 35 65 104 96 153 31 50
87 144 126 210 38 66 102 174 142 240 41 66 120 199 177 295 161 273 202 340
212 346 5 3 15 0 23 -6 13 -11 15 -108 17 -654 l3 -641 231 -3 c178 -2 233 1
240 10 5 8 7 461 4 1068 l-5 1055 -245 0 -245 0 -50 -78 c-27 -42 -79 -127
-115 -189 -107 -184 -461 -778 -505 -848 -53 -83 -206 -341 -221 -373 -10 -21
-29 -41 -46 -48 -26 -10 -32 -9 -48 7 -19 21 -97 148 -280 459 -64 110 -141
239 -171 287 -116 188 -174 284 -209 347 -53 96 -240 403 -258 424 -14 15 -39
17 -254 17 -182 0 -240 -3 -243 -12z"/>
<path d="M13775 3108 c-3 -7 -4 -488 -3 -1068 l3 -1055 245 0 245 0 0 1065 0
1065 -243 3 c-189 2 -244 0 -247 -10z"/>
<path d="M14706 3104 c-8 -20 -8 -192 0 -221 l6 -23 722 0 c425 0 727 4 736
10 9 5 19 5 27 -2 15 -12 -42 -79 -357 -413 -36 -38 -140 -151 -230 -250 -91
-98 -224 -242 -295 -320 -188 -202 -446 -481 -552 -599 l-93 -101 3 -100 2
-100 1091 -3 c866 -2 1093 1 1100 10 5 7 7 63 4 123 l-5 110 -788 3 c-681 2
-788 4 -793 17 -6 14 104 139 310 355 45 47 97 103 115 125 19 22 70 78 115
125 45 47 194 209 331 360 138 151 295 322 350 380 55 58 146 156 203 217
l102 112 0 85 c0 46 -3 91 -6 100 -6 14 -107 16 -1049 16 -942 0 -1043 -2
-1049 -16z"/>
</g>
</svg>
