<?xml version="1.0" standalone="no"?>
<!DOCTYPE svg PUBLIC "-//W3C//DTD SVG 20010904//EN"
 "http://www.w3.org/TR/2001/REC-SVG-20010904/DTD/svg10.dtd">
<svg version="1.0" xmlns="http://www.w3.org/2000/svg"
 width="600.000000pt" height="600.000000pt" viewBox="0 0 600.000000 600.000000"
 preserveAspectRatio="xMidYMid meet">

<g transform="translate(0.000000,600.000000) scale(0.100000,-0.100000)"
fill="#000000" stroke="none">
<path d="M4906 5244 c-305 -74 -477 -415 -354 -706 l20 -46 -242 -504 c-133
-276 -296 -617 -363 -755 -66 -139 -123 -253 -127 -253 -4 0 -36 36 -71 80
-35 45 -76 95 -91 112 -16 17 -28 35 -28 40 0 17 -124 150 -175 188 -97 72
-219 74 -291 7 -19 -18 -129 -180 -245 -362 -116 -181 -215 -330 -221 -330
-11 0 -518 801 -518 818 0 5 -34 55 -75 110 -51 70 -89 111 -122 132 -45 28
-55 30 -143 30 -83 0 -101 -3 -140 -25 -57 -32 -109 -100 -167 -220 -26 -52
-271 -547 -546 -1100 -274 -553 -506 -1020 -514 -1039 -24 -55 -34 -141 -23
-204 20 -122 108 -195 249 -204 62 -5 90 -2 132 13 76 27 163 116 211 214 141
292 820 1650 826 1654 11 7 514 -792 542 -860 5 -12 31 -49 60 -83 70 -84 125
-111 225 -111 86 0 137 20 188 73 32 35 148 208 336 505 68 105 126 192 131
192 10 0 156 -180 203 -250 43 -65 116 -141 174 -181 83 -58 197 -59 308 -3
80 40 64 12 385 684 240 503 339 708 525 1094 l130 270 59 13 c269 61 445 348
381 622 -66 277 -351 452 -629 385z"/>
</g>
</svg>
