<?xml version="1.0" standalone="no"?>
<!DOCTYPE svg PUBLIC "-//W3C//DTD SVG 20010904//EN"
 "http://www.w3.org/TR/2001/REC-SVG-20010904/DTD/svg10.dtd">
<svg version="1.0" xmlns="http://www.w3.org/2000/svg"
 width="1500.000000pt" height="1500.000000pt" viewBox="0 0 1500.000000 1500.000000"
 preserveAspectRatio="xMidYMid meet">

<g transform="translate(0.000000,1500.000000) scale(0.100000,-0.100000)"
fill="#000000" stroke="none">
<path d="M12375 12914 c-104 -16 -211 -41 -285 -66 -641 -224 -1002 -892 -839
-1552 17 -69 49 -156 101 -276 16 -35 15 -36 -36 -141 -28 -58 -81 -168 -118
-245 -37 -76 -108 -224 -159 -329 -50 -104 -106 -221 -124 -260 -18 -38 -68
-142 -110 -230 -129 -267 -205 -425 -250 -520 -23 -49 -75 -157 -115 -240 -40
-82 -96 -199 -125 -260 -47 -99 -246 -513 -377 -785 -73 -150 -196 -408 -290
-605 -88 -183 -94 -195 -112 -195 -6 0 -43 39 -81 86 -72 89 -122 150 -201
244 -25 30 -48 66 -51 80 -3 14 -19 34 -36 45 -29 19 -64 64 -129 167 -69 112
-329 382 -414 432 -34 19 -64 43 -68 51 -9 23 -83 53 -177 71 -101 19 -211 14
-317 -14 -144 -39 -202 -97 -382 -382 -86 -136 -164 -258 -241 -378 -31 -48
-120 -188 -199 -312 -78 -124 -166 -261 -194 -305 -29 -44 -70 -108 -92 -143
-21 -34 -50 -80 -64 -102 -14 -22 -49 -78 -79 -125 -29 -48 -60 -89 -68 -92
-14 -5 -53 23 -53 38 0 5 -37 67 -83 139 -112 177 -122 194 -198 317 -37 59
-91 145 -120 191 -30 45 -76 118 -104 163 -82 132 -100 161 -147 234 -254 395
-598 957 -598 978 0 14 -5 29 -10 32 -6 4 -26 30 -44 58 -47 71 -159 225 -290
397 -23 31 -66 64 -137 107 -141 85 -192 96 -415 91 l-171 -3 -106 -54 c-129
-65 -179 -112 -288 -273 -43 -64 -79 -119 -79 -123 0 -17 -52 -114 -70 -130
-11 -10 -20 -27 -20 -37 0 -22 -45 -114 -60 -123 -5 -3 -10 -15 -10 -25 0 -18
-178 -381 -1155 -2345 -246 -495 -574 -1156 -730 -1470 -155 -313 -375 -754
-487 -980 -113 -225 -215 -440 -226 -477 -56 -172 -43 -535 22 -621 13 -18 27
-42 30 -54 17 -54 230 -215 321 -242 94 -28 230 -43 342 -39 112 4 123 7 229
50 118 48 203 109 316 225 76 79 112 141 297 515 160 325 544 1099 1445 2911
267 538 486 982 486 986 0 4 8 15 18 25 27 24 15 41 246 -334 89 -143 175
-280 295 -470 75 -117 210 -331 306 -485 48 -77 98 -156 110 -175 12 -19 36
-57 53 -85 18 -27 61 -95 97 -150 36 -55 83 -135 105 -177 22 -42 59 -107 83
-145 24 -37 61 -102 81 -143 21 -41 58 -96 83 -121 24 -26 54 -62 66 -80 43
-68 168 -175 247 -212 112 -52 139 -57 332 -57 l177 0 63 36 c134 76 170 101
206 146 20 26 63 79 94 117 56 67 69 87 157 231 22 36 64 98 95 139 31 41 59
83 62 95 4 12 21 41 38 66 17 25 36 54 43 65 15 25 89 140 233 365 62 96 128
201 149 233 20 33 68 108 106 168 39 60 93 145 120 189 38 60 55 79 70 78 11
-2 58 -51 108 -113 49 -60 115 -141 146 -179 31 -38 67 -83 81 -101 14 -18 51
-63 83 -101 31 -37 57 -76 57 -85 0 -9 16 -37 36 -61 20 -23 54 -69 76 -101
110 -161 389 -389 516 -421 90 -23 224 -39 268 -32 21 3 59 9 84 12 25 3 73
17 107 30 34 13 70 24 80 24 33 0 171 89 228 148 45 45 73 89 134 212 42 85
98 193 123 240 25 47 54 108 63 135 10 28 50 118 90 200 40 83 103 213 140
290 37 77 94 196 127 265 79 163 177 367 243 505 29 61 91 190 139 289 47 98
86 180 86 181 0 2 48 101 106 222 59 120 129 265 156 323 28 58 81 168 118
245 37 77 91 190 120 250 29 61 84 175 123 255 86 179 178 371 224 468 18 41
52 111 74 155 23 45 87 179 143 297 57 118 131 274 166 347 l64 131 87 16
c319 59 629 259 821 531 110 154 195 368 222 556 101 684 -341 1322 -1019
1470 -87 19 -340 33 -410 23z"/>
<path d="M4485 3670 c-3 -5 -19 -10 -34 -10 -16 0 -34 -7 -41 -15 -7 -8 -25
-15 -41 -15 -15 0 -31 -4 -34 -10 -3 -5 -17 -10 -29 -10 -13 0 -35 -11 -50
-25 -15 -14 -33 -25 -40 -25 -7 0 -23 -11 -36 -25 -13 -14 -30 -25 -39 -25
-20 0 -101 -80 -101 -100 0 -9 -11 -27 -25 -40 -14 -13 -25 -28 -25 -34 0 -5
-10 -30 -22 -55 -41 -84 -34 -348 9 -374 7 -4 13 -19 13 -32 0 -32 161 -196
221 -223 24 -11 53 -30 63 -41 11 -12 31 -21 46 -21 15 0 33 -7 40 -15 8 -9
29 -15 56 -15 23 0 46 -4 49 -10 4 -6 103 -10 265 -10 162 0 261 4 265 10 3 6
19 10 34 10 16 0 34 7 41 15 7 8 25 15 39 15 16 0 37 10 49 23 11 12 46 33 76
47 31 14 56 30 56 36 0 6 11 16 25 22 14 6 25 16 25 22 0 6 16 25 36 42 39 34
64 76 64 108 0 11 5 20 10 20 28 0 46 119 41 270 -2 65 -7 100 -17 111 -8 8
-14 19 -14 23 0 4 -16 24 -35 44 -19 20 -35 44 -35 52 0 21 -81 100 -102 100
-8 0 -22 7 -29 16 -21 26 -118 84 -139 84 -10 0 -22 5 -25 10 -3 6 -19 10 -34
10 -16 0 -34 7 -41 15 -7 8 -25 15 -41 15 -15 0 -31 5 -34 10 -4 6 -92 10
-230 10 -138 0 -226 -4 -230 -10z m359 -221 c34 -6 71 -13 82 -15 33 -6 170
-102 196 -138 69 -93 77 -168 31 -306 -16 -46 -116 -160 -140 -160 -7 0 -39
-15 -70 -32 l-58 -33 -165 0 c-134 0 -172 3 -200 17 -19 9 -49 19 -66 23 -40
8 -135 104 -168 171 -20 40 -26 67 -26 115 1 122 34 197 125 277 42 37 57 44
170 76 61 17 208 20 289 5z"/>
<path d="M5650 3667 c-13 -10 -14 -79 -10 -547 3 -294 10 -545 14 -557 8 -22
13 -23 135 -23 l126 0 13 40 c7 24 12 98 12 189 l0 149 31 11 c18 6 64 11 104
11 l72 0 61 -62 c33 -34 73 -85 88 -112 15 -28 33 -55 39 -61 16 -14 78 -104
95 -137 l13 -28 139 0 c132 0 138 1 138 20 0 22 -76 162 -116 217 -13 17 -24
36 -24 41 0 5 -9 17 -21 28 -12 10 -28 32 -36 49 -8 16 -27 42 -41 57 -24 26
-24 28 -6 34 19 6 36 12 87 33 15 6 27 15 27 21 0 6 11 15 24 20 36 13 92 106
106 175 16 78 6 174 -25 235 -16 31 -46 66 -82 94 -32 26 -63 51 -70 56 -7 6
-19 10 -26 10 -8 0 -20 7 -27 15 -7 9 -29 15 -51 15 -21 0 -41 5 -44 10 -10
16 -726 13 -745 -3z m635 -217 c3 -5 19 -10 34 -10 16 0 34 -7 41 -15 7 -8 23
-15 36 -15 19 0 24 -5 24 -24 0 -14 5 -28 10 -31 16 -10 12 -85 -5 -91 -8 -4
-15 -17 -15 -30 0 -17 -6 -24 -19 -24 -11 0 -22 -4 -26 -9 -3 -6 -19 -17 -37
-25 -25 -13 -68 -16 -210 -16 -111 0 -178 4 -179 10 0 6 0 71 0 145 0 74 0
137 0 140 2 10 340 5 346 -5z"/>
<path d="M6810 3654 c-7 -19 -7 -31 1 -40 7 -8 9 -28 5 -51 -4 -21 -8 -51 -9
-68 l-2 -30 205 -5 205 -5 3 -30 c2 -16 7 -221 11 -455 4 -234 8 -426 9 -427
1 -2 64 -3 140 -3 l137 0 13 41 c10 32 13 142 11 458 l-1 416 213 5 214 5 -4
79 c-2 43 -6 90 -10 105 l-7 26 -562 3 -562 2 -10 -26z"/>
<path d="M8552 3668 c-15 -15 -18 -1078 -3 -1078 5 0 11 -10 13 -22 3 -22 6
-23 128 -23 l125 0 0 307 c0 240 3 308 13 308 6 0 12 -7 12 -15 0 -8 9 -23 21
-33 18 -15 30 -35 72 -132 6 -14 23 -38 38 -55 15 -16 39 -53 54 -82 14 -29
30 -55 35 -58 6 -3 10 -14 10 -23 0 -10 9 -25 20 -35 11 -9 30 -39 42 -67 12
-27 25 -50 30 -50 4 0 8 -10 8 -22 0 -32 41 -48 123 -48 67 0 68 0 83 33 8 17
28 54 45 81 17 28 38 68 47 90 8 23 29 56 45 75 16 19 35 49 43 66 7 17 20 38
29 45 9 7 27 37 40 66 13 28 32 58 43 66 10 7 22 30 26 51 4 21 12 37 18 35 6
-2 9 -92 9 -265 -2 -257 6 -338 34 -345 5 -2 61 -2 123 0 98 3 112 5 112 21 0
9 4 21 10 27 15 15 15 1061 -1 1080 -9 11 -40 14 -133 14 -121 0 -123 0 -149
-28 -15 -15 -27 -33 -27 -40 0 -6 -10 -28 -22 -49 -12 -21 -34 -63 -50 -93
-28 -52 -65 -109 -88 -137 -5 -7 -10 -15 -10 -19 0 -3 -18 -33 -40 -66 -22
-33 -40 -66 -40 -74 0 -7 -4 -16 -10 -19 -5 -3 -10 -15 -10 -25 0 -11 -9 -24
-20 -30 -11 -6 -29 -30 -39 -53 -11 -23 -33 -58 -50 -77 -28 -34 -30 -34 -56
-20 -25 14 -38 33 -83 125 -28 58 -62 118 -77 135 -6 8 -36 60 -65 115 -30 55
-56 102 -60 105 -8 6 -64 91 -73 110 -4 8 -22 42 -40 75 l-32 60 -130 3 c-93
2 -134 -1 -143 -10z"/>
<path d="M10681 3652 c-7 -16 -11 -63 -9 -108 l3 -79 333 -3 c260 -2 333 -5
330 -15 -3 -6 -14 -13 -26 -15 -12 -2 -22 -10 -22 -19 0 -9 -56 -72 -125 -141
-69 -69 -125 -130 -125 -136 0 -6 -47 -58 -105 -116 -58 -58 -110 -115 -115
-128 -5 -12 -20 -26 -32 -31 -27 -10 -56 -42 -86 -92 -12 -19 -30 -44 -42 -54
-28 -26 -28 -112 1 -149 l20 -26 525 0 c606 0 556 -9 568 105 6 61 5 70 -15
91 l-22 24 -340 2 c-345 3 -380 7 -321 38 29 16 309 288 315 307 6 16 72 93
164 189 44 46 90 98 103 114 13 17 27 28 32 25 4 -3 17 10 28 29 20 34 28 90
24 174 l-2 42 -524 0 -524 0 -11 -28z"/>
<path d="M8079 3642 c-18 -13 -19 -34 -19 -532 l0 -519 22 -15 c17 -12 48 -16
125 -16 158 0 143 -58 143 554 0 399 -3 516 -12 524 -21 16 -237 20 -259 4z"/>
<path d="M10237 3642 c-15 -17 -17 -68 -17 -534 0 -486 1 -516 18 -531 28 -26
232 -25 255 1 15 17 17 68 17 534 0 486 -1 516 -18 531 -28 26 -232 25 -255
-1z"/>
</g>
</svg>
